HIERARCHY
ROOT Hips
{
	OFFSET -0.001795 -0.223333 0.028219
	CHANNELS 6 Xposition Yposition Zposition Zrotation Yrotation Xrotation 
	JOINT LeftUpLeg
	{
		OFFSET 0.069520 -0.091406 -0.006815
		CHANNELS 3 Zrotation Yrotation Xrotation
		JOINT LeftLeg
		{
			OFFSET 0.034277 -0.375199 -0.004496
			CHANNELS 3 Zrotation Yrotation Xrotation
			JOINT LeftFoot
			{
				OFFSET -0.013596 -0.397961 -0.043693
				CHANNELS 3 Zrotation Yrotation Xrotation
				JOINT LeftToe
				{
					OFFSET 0.026358 -0.055791 0.119288
					CHANNELS 3 Zrotation Yrotation Xrotation
					End Site
					{
						OFFSET 0.000000 0.000000 0.000000
					}
				}
			}
		}
	}
	JOINT RightUpLeg
	{
		OFFSET -0.067670 -0.090522 -0.004320
		CHANNELS 3 Zrotation Yrotation Xrotation
		JOINT RightLeg
		{
			OFFSET -0.038290 -0.382569 -0.008850
			CHANNELS 3 Zrotation Yrotation Xrotation
			JOINT RightFoot
			{
				OFFSET 0.015774 -0.398415 -0.042312
				CHANNELS 3 Zrotation Yrotation Xrotation
				JOINT RightToe
				{
					OFFSET -0.025372 -0.048144 0.123348
					CHANNELS 3 Zrotation Yrotation Xrotation
					End Site
					{
						OFFSET 0.000000 0.000000 0.000000
					}
				}
			}
		}
	}
	JOINT Spine
	{
		OFFSET -0.002533 0.108963 -0.026696
		CHANNELS 3 Zrotation Yrotation Xrotation
		JOINT Spine1
		{
			OFFSET 0.005487 0.135180 0.001092
			CHANNELS 3 Zrotation Yrotation Xrotation
			JOINT Spine2
			{
				OFFSET 0.001457 0.052922 0.025425
				CHANNELS 3 Zrotation Yrotation Xrotation
				JOINT Neck
				{
					OFFSET -0.002778 0.213870 -0.042857
					CHANNELS 3 Zrotation Yrotation Xrotation
					JOINT Head
					{
						OFFSET 0.005152 0.064970 0.051349
						CHANNELS 3 Zrotation Yrotation Xrotation
						End Site
						{
							OFFSET 0.000000 0.000000 0.000000
						}
					}
				}
				JOINT LeftShoulder
				{
					OFFSET 0.078845 0.121749 -0.034090
					CHANNELS 3 Zrotation Yrotation Xrotation
					JOINT LeftArm
					{
						OFFSET 0.090977 0.030469 -0.008868
						CHANNELS 3 Zrotation Yrotation Xrotation
						JOINT LeftForeArm
						{
							OFFSET 0.259612 -0.012772 -0.027456
							CHANNELS 3 Zrotation Yrotation Xrotation
							JOINT LeftHand
							{
								OFFSET 0.249234 0.008986 -0.001171
								CHANNELS 3 Zrotation Yrotation Xrotation
								End Site
								{
									OFFSET 0.000000 0.000000 0.000000
								}
							}
						}
					}
				}
				JOINT RightShoulder
				{
					OFFSET -0.081759 0.118833 -0.038615
					CHANNELS 3 Zrotation Yrotation Xrotation
					JOINT RightArm
					{
						OFFSET -0.096012 0.032551 -0.009143
						CHANNELS 3 Zrotation Yrotation Xrotation
						JOINT RightForeArm
						{
							OFFSET -0.253742 -0.013329 -0.021401
							CHANNELS 3 Zrotation Yrotation Xrotation
							JOINT RightHand
							{
								OFFSET -0.255298 0.007772 -0.005559
								CHANNELS 3 Zrotation Yrotation Xrotation
								End Site
								{
									OFFSET 0.000000 0.000000 0.000000
								}
							}
						}
					}
				}
			}
		}
	}
}
MOTION
Frames: 15
Frame Time: 0.050000
0.019897 0.954682 -0.067284 1.420135 -5.175620 12.040873 5.962420 -0.543057 -9.553203 1.028196 0.081081 -4.551957 2.647024 8.996304 15.977010 0.000000 0.000000 0.000000 -4.827341 1.208048 -14.606443 -8.951505 0.525493 -2.770528 5.851832 2.648691 17.509119 0.000000 0.000000 0.000000 5.831557 -0.364809 0.857291 3.106356 -1.450860 1.187910 -11.002611 1.930274 3.549086 17.334645 -11.035772 -9.409243 0.000000 0.000000 0.000000 10.583597 -34.258236 9.655376 -10.866252 -56.073821 1.307559 20.578225 -29.042548 -4.193146 0.000000 0.000000 0.000000 -13.337810 19.920340 5.564557 12.453995 61.042005 3.179589 -20.129420 34.841153 -4.653227 0.000000 0.000000 0.000000 
0.019872 0.954670 -0.068056 1.279681 -5.389782 12.120464 5.853133 -0.548622 -9.619869 1.274937 0.064245 -4.584342 2.646400 8.967500 15.995747 0.000000 0.000000 0.000000 -4.582758 1.222186 -14.522826 -9.244715 0.503514 -3.121037 5.779299 2.319206 17.798521 0.000000 0.000000 0.000000 5.667971 -0.381200 1.121231 3.013627 -1.398826 1.052770 -10.997222 1.990837 3.583593 17.443119 -11.157314 -9.271533 0.000000 0.000000 0.000000 11.201302 -33.451957 9.301111 -10.377001 -56.365231 1.101484 20.480725 -28.387908 -4.065835 0.000000 0.000000 0.000000 -13.987226 20.019133 5.516981 11.346953 62.260369 2.685495 -20.023961 33.481573 -4.424401 0.000000 0.000000 0.000000 
0.019307 0.954624 -0.068870 1.186451 -5.574767 12.204345 5.991886 -0.539555 -9.641157 1.326532 0.068478 -4.754532 2.532096 8.763567 15.987956 0.000000 0.000000 0.000000 -4.456444 1.227434 -14.426761 -9.225128 0.455988 -3.488549 5.712942 1.998432 18.118832 0.000000 0.000000 0.000000 5.450032 -0.384842 1.282382 2.774776 -1.279620 0.913501 -10.831030 2.225858 3.695233 17.299616 -11.220538 -8.751955 0.000000 0.000000 0.000000 11.432816 -33.210964 9.185543 -10.069932 -56.089228 0.921529 20.605070 -28.500419 -4.119197 0.000000 0.000000 0.000000 -14.543125 20.002846 5.439256 10.698931 63.292163 2.439790 -20.349311 32.620545 -4.381568 0.000000 0.000000 0.000000 
0.018018 0.954514 -0.069722 0.882562 -5.745675 12.405541 6.285121 -0.524102 -9.710143 1.393126 0.060785 -4.701824 2.536516 8.689898 15.696003 0.000000 0.000000 0.000000 -4.011232 1.269344 -14.567570 -9.384019 0.439175 -3.701818 5.432588 1.426370 18.185098 0.000000 0.000000 0.000000 5.204394 -0.374866 1.291421 2.753977 -1.263829 0.826349 -10.942864 2.326742 3.820009 17.359105 -11.391412 -8.355327 0.000000 0.000000 0.000000 12.119627 -32.427227 8.834797 -9.974927 -56.019602 0.858709 20.989234 -28.590017 -4.233671 0.000000 0.000000 0.000000 -14.942035 20.183085 5.430037 9.434037 64.317401 1.800929 -20.575451 31.848398 -4.325847 0.000000 0.000000 0.000000 
0.016216 0.954416 -0.070632 0.553491 -5.845560 12.382322 6.826613 -0.488521 -9.682273 1.201194 0.066940 -4.548466 2.658231 8.842213 15.607379 0.000000 0.000000 0.000000 -3.742580 1.282293 -14.505682 -9.133214 0.434885 -3.584631 5.335377 1.346583 17.949375 0.000000 0.000000 0.000000 4.850646 -0.354427 1.304320 2.552505 -1.176582 1.043819 -10.813012 2.443208 3.481852 17.014324 -11.287365 -7.785917 0.000000 0.000000 0.000000 12.008373 -32.449899 8.880235 -10.131879 -55.502821 0.904694 21.017064 -29.045807 -4.316152 0.000000 0.000000 0.000000 -14.730385 20.534043 5.542639 9.961952 65.015257 2.197210 -20.750377 31.483810 -4.311279 0.000000 0.000000 0.000000 
0.014356 0.954246 -0.071494 0.254936 -5.753949 12.404702 7.426440 -0.452458 -9.602865 0.892372 0.085657 -4.455526 2.505333 8.543022 15.201117 0.000000 0.000000 0.000000 -3.319498 1.309179 -14.543314 -9.164378 0.447728 -3.500697 5.004360 0.744709 18.000291 0.000000 0.000000 0.000000 4.537642 -0.360921 1.613447 2.512618 -1.152488 0.849143 -11.116162 2.570240 3.658557 17.084695 -11.342208 -7.795512 0.000000 0.000000 0.000000 12.307832 -32.041871 8.716130 -10.331881 -55.735641 0.948765 21.649781 -29.124109 -4.503348 0.000000 0.000000 0.000000 -14.256756 20.666953 5.614465 10.557311 65.637216 2.648241 -21.124319 31.587107 -4.415788 0.000000 0.000000 0.000000 
0.012875 0.954010 -0.072278 0.069002 -5.686366 12.473185 7.783368 -0.434841 -9.743429 0.697444 0.085674 -4.115709 2.575377 8.655579 15.191893 0.000000 0.000000 0.000000 -3.117063 1.342980 -14.801300 -9.076034 0.468785 -3.273546 4.963360 0.810754 17.737723 0.000000 0.000000 0.000000 4.190574 -0.352137 1.770193 2.345138 -1.080767 1.030500 -11.287011 2.788572 3.492867 16.991252 -11.328977 -7.557763 0.000000 0.000000 0.000000 12.424127 -32.101308 8.720218 -10.212548 -55.929200 0.847008 21.664262 -29.235382 -4.540507 0.000000 0.000000 0.000000 -13.673788 20.800808 5.708543 12.007158 66.030058 3.649484 -21.390303 31.664006 -4.482723 0.000000 0.000000 0.000000 
0.011872 0.953737 -0.072922 0.027802 -5.511927 12.389525 7.987637 -0.424574 -9.850404 0.570009 0.078275 -3.693073 2.327726 8.236576 14.873530 0.000000 0.000000 0.000000 -2.909748 1.364068 -14.933187 -9.150990 0.541032 -2.726033 4.565385 0.345117 17.296959 0.000000 0.000000 0.000000 3.908288 -0.375659 2.354427 2.172547 -1.001336 1.008091 -11.675246 2.840300 3.382339 16.870129 -11.320095 -7.245434 0.000000 0.000000 0.000000 12.304598 -32.154606 8.770993 -10.480296 -56.258524 0.936463 22.201871 -29.099325 -4.666283 0.000000 0.000000 0.000000 -12.646267 20.773434 5.832279 14.006275 66.227948 4.938827 -22.034560 32.254944 -4.733773 0.000000 0.000000 0.000000 
0.011268 0.953705 -0.073509 0.087030 -5.113940 12.455389 8.032582 -0.435565 -10.153454 0.335424 0.085115 -3.364572 2.217948 8.131832 14.932154 0.000000 0.000000 0.000000 -3.028993 1.363032 -15.078369 -9.023224 0.564371 -2.474097 4.356093 0.121973 17.155923 0.000000 0.000000 0.000000 3.626198 -0.369562 2.530288 2.169228 -1.006810 1.123084 -11.965189 2.881523 3.384993 16.686119 -11.154019 -7.314053 0.000000 0.000000 0.000000 11.724533 -32.205892 8.909757 -10.376522 -56.933821 0.857276 22.089165 -28.696604 -4.577409 0.000000 0.000000 0.000000 -11.858641 20.728060 5.915540 16.575826 66.115233 6.556494 -22.486340 33.262591 -5.005924 0.000000 0.000000 0.000000 
0.010747 0.953882 -0.074196 0.203014 -4.702916 12.459833 8.023187 -0.447484 -10.346587 0.345380 0.072256 -3.040878 1.823265 7.558268 14.852391 0.000000 0.000000 0.000000 -3.176661 1.360489 -15.247657 -8.928079 0.604099 -2.103958 3.909575 -0.523485 17.007811 0.000000 0.000000 0.000000 3.459679 -0.403613 3.188433 2.206039 -1.017576 0.820414 -12.540536 3.097257 3.706549 16.959595 -11.412803 -7.171446 0.000000 0.000000 0.000000 11.514621 -32.569762 9.041117 -10.149853 -57.088649 0.640299 22.812633 -28.836879 -4.811620 0.000000 0.000000 0.000000 -11.003660 20.766093 6.019589 18.030708 65.705238 7.463963 -23.100715 33.954205 -5.267332 0.000000 0.000000 0.000000 
0.010143 0.954224 -0.075309 0.471853 -4.364012 12.508092 7.774222 -0.477197 -10.692813 0.365837 0.061170 -2.787051 1.771988 7.631470 15.342641 0.000000 0.000000 0.000000 -3.443282 1.354049 -15.470400 -8.830683 0.638707 -1.767689 3.651171 -0.849170 16.871712 0.000000 0.000000 0.000000 3.141035 -0.416714 3.748607 2.105754 -0.976005 0.902975 -13.028452 3.347473 3.869979 17.074854 -11.434757 -7.368464 0.000000 0.000000 0.000000 11.634240 -33.113707 9.156768 -9.157643 -57.676463 0.072330 22.627152 -27.940127 -4.623655 0.000000 0.000000 0.000000 -10.360119 21.028682 6.170400 19.945062 65.326013 8.649841 -23.768905 34.231574 -5.475972 0.000000 0.000000 0.000000 
0.009296 0.954626 -0.076738 0.585745 -3.980989 12.599021 7.853542 -0.489822 -11.118049 0.355191 0.049599 -2.443548 1.371308 7.108869 15.535106 0.000000 0.000000 0.000000 -3.515691 1.354731 -15.629314 -8.927331 0.672207 -1.579585 3.499896 -1.107078 17.024039 0.000000 0.000000 0.000000 2.909192 -0.456231 4.638376 2.199634 -1.023733 0.952185 -13.636070 3.637127 3.754365 17.155783 -11.503849 -7.260604 0.000000 0.000000 0.000000 11.548498 -33.526316 9.295205 -8.862138 -58.058751 -0.193925 22.671438 -27.315148 -4.545825 0.000000 0.000000 0.000000 -9.463602 21.356161 6.402949 21.111926 65.410981 9.519907 -23.291821 33.481585 -5.172842 0.000000 0.000000 0.000000 
0.008336 0.954982 -0.078469 0.734801 -3.562083 12.966140 7.868040 -0.514781 -11.719565 0.355854 0.050720 -2.461491 1.218732 7.131936 16.422920 0.000000 0.000000 0.000000 -3.554964 1.386621 -16.150155 -8.991636 0.691108 -1.489192 3.510693 -1.135622 17.338288 0.000000 0.000000 0.000000 2.540574 -0.465270 5.282143 2.234759 -1.050162 1.169667 -13.883327 3.682083 3.867828 17.389255 -11.725683 -7.089282 0.000000 0.000000 0.000000 11.943645 -34.044961 9.354796 -8.220132 -58.079499 -0.577051 22.230543 -26.272302 -4.262974 0.000000 0.000000 0.000000 -9.350796 21.999911 6.618160 21.453114 65.565266 9.831939 -22.861131 31.686613 -4.738231 0.000000 0.000000 0.000000 
0.007369 0.955326 -0.080182 0.755463 -3.532461 13.398735 7.988587 -0.524603 -12.374512 0.442170 0.038524 -2.339984 1.154412 7.082976 16.635647 0.000000 0.000000 0.000000 -3.676805 1.416303 -16.619056 -8.833150 0.661705 -1.607793 3.534248 -1.209515 17.642818 0.000000 0.000000 0.000000 2.418293 -0.497071 5.953566 2.041848 -0.963624 1.339427 -14.069262 4.236576 3.816823 17.411954 -11.910979 -6.531280 0.000000 0.000000 0.000000 11.934596 -34.704614 9.538439 -7.684920 -57.841924 -0.959737 21.687884 -25.215697 -3.973928 0.000000 0.000000 0.000000 -8.964843 22.599544 6.878827 21.933960 65.493896 10.243314 -21.885673 29.928152 -4.183382 0.000000 0.000000 0.000000 
0.006572 0.955556 -0.081795 0.819723 -3.359899 13.747011 7.893068 -0.549988 -12.835037 0.639406 0.024198 -2.415339 0.952321 6.932463 17.203541 0.000000 0.000000 0.000000 -3.717912 1.438001 -16.965097 -8.951088 0.633830 -1.929437 3.720041 -1.083197 18.209314 0.000000 0.000000 0.000000 2.160070 -0.513981 6.679708 2.045325 -0.967674 1.425548 -14.194688 4.600993 4.029365 17.986522 -12.194416 -6.964272 0.000000 0.000000 0.000000 12.619739 -35.195004 9.525667 -7.392659 -57.539811 -1.222310 21.105033 -23.990082 -3.657328 0.000000 0.000000 0.000000 -8.638814 23.293633 7.163339 21.386370 65.645942 10.034197 -20.658315 27.549416 -3.533520 0.000000 0.000000 0.000000 
